<svg width="14" height="14" viewBox="0 0 14 14" fill="none" xmlns="http://www.w3.org/2000/svg">
<path d="M7.66116 12.95H5.01672V5.01667H7.66116V6.33889C8.22485 5.62175 9.07966 5.19423 9.99158 5.17335C11.6315 5.18246 12.9548 6.51698 12.9501 8.15695V12.95H10.3056V8.4875C10.1998 7.7488 9.56633 7.2007 8.82009 7.2023C8.49368 7.21262 8.18558 7.35553 7.96688 7.59806C7.74819 7.84058 7.63779 8.16177 7.66116 8.4875V12.95ZM3.69449 12.95H1.05005V5.01667H3.69449V12.95ZM2.37227 3.69445C1.64203 3.69445 1.05005 3.10247 1.05005 2.37223C1.05005 1.64198 1.64203 1.05 2.37227 1.05C3.10251 1.05 3.69449 1.64198 3.69449 2.37223C3.69449 2.7229 3.55519 3.05921 3.30722 3.30718C3.05926 3.55514 2.72295 3.69445 2.37227 3.69445Z" fill="white"/>
</svg>
