<svg width="14" height="14" viewBox="0 0 14 14" fill="none" xmlns="http://www.w3.org/2000/svg">
<g clip-path="url(#clip0_926_4997)">
<path fill-rule="evenodd" clip-rule="evenodd" d="M7.00868 12.25H6.99469C6.95132 12.25 2.6128 12.241 1.5182 11.9225C0.916297 11.7488 0.446233 11.2449 0.284422 10.5999C0.0875894 9.41021 -0.00746021 8.20373 0.000456593 6.9955C-0.00462882 5.7853 0.0929928 4.57711 0.292116 3.38585C0.458374 2.74029 0.926373 2.23405 1.5273 2.04974C2.59182 1.75 6.81074 1.75 6.98979 1.75H7.00448C7.04854 1.75 11.3983 1.75899 12.4817 2.07747C13.0823 2.25208 13.5514 2.75496 13.714 3.39859C13.9171 4.59272 14.0125 5.80503 13.9987 7.01873C14.0036 8.22747 13.9058 9.43418 13.7064 10.6239C13.5425 11.2681 13.0721 11.7709 12.4705 11.945C11.4073 12.247 7.18773 12.25 7.00868 12.25ZM5.6 9.45L5.60403 4.55L9.8 7L5.6 9.45Z" fill="white"/>
</g>
<defs>
<clipPath id="clip0_926_4997">
<rect width="14" height="14" fill="white"/>
</clipPath>
</defs>
</svg>
