<svg xmlns="http://www.w3.org/2000/svg" width="82" height="16" viewBox="0 0 82 16" fill="none">
    <g clip-path="url(#clip0_12605_579)">
        <path fill-rule="evenodd" clip-rule="evenodd" d="M79.5022 15.5004C79.497 15.4908 79.4923 15.4808 79.4876 15.4708C79.4779 15.4504 79.4684 15.4301 79.4545 15.4134C78.7101 14.5014 77.9652 13.5899 77.2204 12.6785L76.3166 11.5723L75.4128 10.4661C75.3964 10.4458 75.379 10.4264 75.3617 10.4072L75.3617 10.4072C75.3528 10.3973 75.344 10.3874 75.3354 10.3775L75.3318 10.379C75.3273 10.3808 75.324 10.3822 75.321 10.3839C75.3178 10.386 75.3136 10.3892 75.3131 10.3924L75.313 10.3926C75.3115 10.41 75.3099 10.4275 75.3099 10.4449C75.3088 12.0041 75.3083 13.5634 75.3078 15.1232L75.3077 15.1261L75.3076 15.1295L75.3072 15.1325L75.3069 15.1339L75.3062 15.1359C75.3052 15.1381 75.3036 15.1403 75.3004 15.1445C75.2982 15.1474 75.2952 15.1512 75.2913 15.1566H72.7564V0.954025C73.6026 0.798576 74.4483 0.649494 75.3115 0.500412V9.69576L75.3364 9.70425L77.9271 6.19787L79.1696 4.51608L79.2692 4.58397L79.2696 4.58419L79.2709 4.58511L79.271 4.58515C79.3316 4.62634 79.3903 4.66626 79.4486 4.70708C79.9542 5.06201 80.4593 5.41694 80.9644 5.7724C81.0663 5.84403 81.0673 5.85092 80.9846 5.95703L78.0236 9.7695C78.0103 9.78648 77.9981 9.80399 77.9822 9.82574C78.7004 10.6846 79.4173 11.5423 80.1355 12.4014L80.1808 12.4557L80.2774 12.5712L80.3244 12.6274L80.3641 12.675L81.4509 13.9751C81.4383 13.9863 81.4265 13.9971 81.4151 14.0075C81.3929 14.0278 81.3722 14.0467 81.3501 14.0642C81.1076 14.256 80.8649 14.4477 80.6223 14.6394L80.6066 14.6518C80.2832 14.9072 79.9598 15.1626 79.637 15.4182C79.6166 15.4343 79.5991 15.4535 79.5816 15.4727L79.5816 15.4728L79.5815 15.4729L79.5814 15.4729C79.573 15.4822 79.5646 15.4915 79.5558 15.5004H79.5028H79.5022ZM1.03589 0.870148L1.0359 0.870147C1.16293 0.844544 1.28988 0.818957 1.41611 0.79051C1.6231 0.744397 1.82988 0.696745 2.03657 0.649111L2.03658 0.64911C2.15093 0.622758 2.26525 0.596412 2.37957 0.570335C2.39611 0.566465 2.41334 0.566094 2.43328 0.565665C2.44342 0.565447 2.45425 0.565214 2.46605 0.564499V15.1592H0.876019L0.8479 15.156C0.848431 10.4071 0.848431 5.6577 0.848431 0.90829C0.910854 0.89535 0.973334 0.882757 1.0358 0.870168L1.0358 0.870166L1.03581 0.870165L1.03582 0.870163L1.03583 0.870161L1.03584 0.87016L1.03584 0.870158L1.03585 0.870157L1.03586 0.870155L1.03587 0.870153L1.03588 0.870152L1.03588 0.87015L1.03589 0.870148ZM0.876477 15.1598L0.848358 15.1566V15.1832L0.876477 15.1598ZM63.1579 9.04846L63.1493 8.88774L63.1493 8.88726C63.1395 8.70343 63.1303 8.5303 63.1191 8.35717C63.115 8.29242 63.1072 8.228 63.0994 8.16365L63.0932 8.11153C63.039 7.6473 62.787 7.32951 62.3621 7.14541C62.2273 7.08705 62.0851 7.05522 61.9371 7.03559C61.8891 7.02934 61.8413 7.02151 61.7935 7.01368C61.687 6.99625 61.5806 6.97882 61.4718 6.97882C61.1853 6.97882 60.901 6.9836 60.6145 7.00959C60.1624 7.05098 59.729 7.16398 59.3046 7.30988C59.1376 7.36747 58.9772 7.44358 58.8144 7.52086C58.7402 7.55606 58.6654 7.59151 58.5894 7.62555C58.5846 7.61867 58.5789 7.61149 58.5728 7.60394C58.5593 7.58704 58.5442 7.56831 58.5358 7.54703C58.3663 7.11719 58.1977 6.68702 58.0296 6.25803L58.0284 6.25518L57.8854 5.89015C58.1469 5.69597 58.4191 5.55326 58.7008 5.42593C59.2526 5.17657 59.833 5.0259 60.4267 4.9235C61.0134 4.82217 61.6045 4.77973 62.1981 4.84764L62.2213 4.85028C62.576 4.89075 62.9324 4.93141 63.2719 5.05083L63.2783 5.05306C63.5383 5.14463 63.798 5.23613 64.0343 5.38348C64.5399 5.69916 64.914 6.12996 65.1533 6.67164C65.2949 6.99315 65.3994 7.32845 65.453 7.67755C65.5076 8.03248 65.5352 8.38847 65.5347 8.74871C65.5319 10.3203 65.5327 11.8919 65.5335 13.4635L65.5342 15.0388V15.1412C65.4334 15.1704 63.9102 15.1783 63.7362 15.1508C63.6439 14.8828 63.5499 14.6096 63.4513 14.322C63.4375 14.3304 63.4244 14.3379 63.412 14.345C63.3873 14.3592 63.3651 14.3719 63.3446 14.3868C62.9149 14.6971 62.4565 14.9545 61.9578 15.1385C61.6872 15.2383 61.4097 15.3126 61.1264 15.3646C60.7349 15.4367 60.3391 15.4563 59.9444 15.416C59.7398 15.3951 59.5378 15.3406 59.3378 15.2867L59.3295 15.2844C58.5708 15.0807 58.0318 14.6144 57.6885 13.913C57.5527 13.635 57.4806 13.34 57.4211 13.0397C57.3683 12.7716 57.3662 12.5009 57.3642 12.2296L57.3633 12.1288C57.3601 11.8428 57.4132 11.5675 57.4859 11.2932C57.705 10.4682 58.2286 9.89786 58.9804 9.52383C59.338 9.3461 59.721 9.24052 60.1163 9.18057C60.1786 9.1712 60.2406 9.15913 60.3026 9.14706C60.3986 9.12838 60.4946 9.10969 60.5916 9.10099C60.8771 9.07552 61.1641 9.0543 61.4506 9.05006C61.8074 9.04446 62.1644 9.04568 62.5213 9.0469H62.5214C62.6724 9.04742 62.8234 9.04793 62.9743 9.04793H63.1568L63.1579 9.04846ZM63.1398 10.699L63.1201 10.698L63.0871 10.6961C63.0585 10.6943 63.0315 10.6926 63.0046 10.6926C62.8739 10.6924 62.7432 10.6924 62.6125 10.6923C62.4164 10.6923 62.2202 10.6922 62.0241 10.6916C61.7111 10.691 61.3986 10.6916 61.0882 10.742C60.8044 10.7881 60.5359 10.8741 60.2908 11.0269C60.0229 11.1934 59.8309 11.4301 59.7412 11.725C59.6568 12.0025 59.6399 12.297 59.7041 12.5872C59.7486 12.7883 59.8298 12.9734 59.9842 13.1161C60.1752 13.2923 60.4038 13.4154 60.6606 13.4323C60.9275 13.4498 61.2018 13.4424 61.466 13.4005C62.0469 13.3087 62.5727 13.0716 63.0475 12.7246C63.1176 12.6737 63.1489 12.6185 63.1483 12.5272C63.1449 12.1167 63.145 11.7063 63.1452 11.2958C63.1452 11.1381 63.1453 10.9803 63.1451 10.8226C63.1451 10.7964 63.1437 10.7704 63.1421 10.7419L63.1409 10.7207L63.1398 10.699ZM53.2006 7.19117V7.04315H56.2146V5.11888H53.199V2.55371L52.4847 2.70601C51.8556 2.84016 51.2292 2.97372 50.5972 3.10813V5.12949L49.6996 5.23221L49.012 5.31094V7.04846H50.602V7.20285L50.6019 8.21535C50.6017 9.39768 50.6015 10.5798 50.6036 11.7623C50.6041 12.0085 50.6068 12.2568 50.6375 12.5003C50.6795 12.8308 50.7505 13.1571 50.8418 13.4797C50.9171 13.7465 51.0317 13.9938 51.1718 14.2299C51.4265 14.658 51.7708 14.9891 52.2366 15.1838L52.2846 15.204C52.3677 15.2391 52.4511 15.2744 52.5374 15.2984L52.5609 15.305L52.6196 15.3217C52.7597 15.3619 52.9008 15.4024 53.0441 15.4162C53.4033 15.4501 53.7635 15.4692 54.1264 15.4268L54.2417 15.4137C54.4191 15.3937 54.5964 15.3738 54.7726 15.3424C55.2007 15.2655 55.6172 15.1472 56.0215 14.9885C56.213 14.9137 56.4019 14.8299 56.586 14.7089C56.455 14.2623 56.3055 13.8233 56.1557 13.3832L56.1554 13.3825L56.155 13.3813L56.1545 13.3798L56.1541 13.3786L56.1536 13.3771L56.1532 13.3759L56.1528 13.3749L56.1526 13.3743C56.102 13.2255 56.0513 13.0767 56.0013 12.9274C55.9828 12.9321 55.9649 12.9364 55.9474 12.9406C55.906 12.9504 55.8672 12.9596 55.8299 12.973C55.3063 13.1645 54.7699 13.2818 54.2076 13.2515C54.1168 13.2468 54.0288 13.2383 53.9391 13.2139C53.7279 13.1566 53.5693 13.0356 53.451 12.8584C53.3178 12.6595 53.2648 12.4276 53.2372 12.1984C53.2038 11.9194 53.2027 11.6361 53.2022 11.3543C53.1998 10.3136 53.2001 9.27324 53.2004 8.23269L53.2006 7.19117ZM43.9182 15.3167C43.8828 15.3196 43.8473 15.323 43.8118 15.3265C43.7346 15.3341 43.6573 15.3416 43.5802 15.3427C43.4462 15.3447 43.3124 15.3433 43.1786 15.3419C43.092 15.341 43.0053 15.3401 42.9186 15.3401C42.5059 15.3395 42.1106 15.2435 41.7207 15.1204C40.5927 14.7634 39.8325 14.0063 39.3444 12.9505C39.2165 12.6741 39.1242 12.3876 39.0504 12.0937C39.04 12.0519 39.0293 12.01 39.0186 11.9682L39.0186 11.9681L39.0185 11.9679C38.9824 11.8269 38.9462 11.6856 38.9205 11.5425C38.9022 11.442 38.8933 11.3396 38.8844 11.2372L38.8844 11.2371L38.8844 11.237L38.8844 11.2368L38.8843 11.2367C38.879 11.1754 38.8737 11.1142 38.8663 11.0533C38.811 10.6007 38.8233 10.1469 38.8356 9.69327L38.8393 9.55293C38.8422 9.44284 38.8576 9.33275 38.8731 9.22291C38.8777 9.19035 38.8823 9.15782 38.8865 9.12531C38.8951 9.05859 38.9054 8.99186 38.9157 8.92513C38.9252 8.864 38.9346 8.80287 38.9427 8.74173C38.975 8.49756 39.0439 8.26195 39.1127 8.0266L39.13 7.96714C39.3072 7.35914 39.5953 6.80791 40.0081 6.32618C40.4192 5.8471 40.9148 5.4789 41.5127 5.26563C41.7716 5.17331 42.039 5.10063 42.3069 5.04121C42.4506 5.00927 42.5993 4.99897 42.7477 4.98869L42.7477 4.98868L42.7478 4.98868L42.7478 4.98868L42.7478 4.98867L42.7479 4.98867C42.7868 4.98597 42.8257 4.98328 42.8645 4.98019C43.0438 4.9664 43.2237 4.9542 43.4035 4.95314C43.6492 4.95208 43.8932 4.96534 44.1341 5.029C44.2088 5.04885 44.2859 5.05991 44.3631 5.07098C44.4365 5.08152 44.5099 5.09206 44.5813 5.11018C45.8053 5.42107 46.6738 6.16065 47.1996 7.30025C47.364 7.65625 47.4908 8.02869 47.5736 8.4128C47.6032 8.55077 47.6214 8.69132 47.6396 8.83175L47.6397 8.83189C47.6476 8.89283 47.6555 8.95375 47.6643 9.01443C47.6722 9.06813 47.6812 9.12172 47.6903 9.1753C47.71 9.29167 47.7297 9.40801 47.737 9.52534C47.754 9.79751 47.7609 10.0707 47.7572 10.344C47.754 10.5811 47.7391 10.8193 47.7142 11.0554C47.7037 11.1549 47.685 11.2535 47.6664 11.3521L47.6664 11.3521C47.6475 11.4522 47.6286 11.5523 47.6182 11.6533C47.5837 11.9908 47.4813 12.3102 47.3677 12.6253C46.9911 13.6683 46.3433 14.4779 45.313 14.948C44.9946 15.0934 44.6625 15.1984 44.3171 15.261C44.2189 15.2787 44.1205 15.2946 44.0221 15.3105L43.9187 15.3273C43.9187 15.3252 43.9182 15.3231 43.9177 15.321L43.9171 15.3178L43.9182 15.3167ZM46.1104 10.04C46.104 9.96741 46.098 9.89687 46.0922 9.82779L46.0921 9.82745C46.0776 9.65621 46.0639 9.49395 46.0462 9.33223L46.037 9.24818L46.037 9.24801V9.24797C46.0177 9.06981 45.9983 8.89093 45.9607 8.7168C45.9311 8.57836 45.8884 8.44238 45.8458 8.30652C45.8258 8.24297 45.8059 8.17944 45.7873 8.11569C45.7034 7.82708 45.5687 7.56287 45.3984 7.31723C45.0864 6.86786 44.6625 6.56174 44.1463 6.39303C43.7924 6.27737 43.4216 6.24713 43.0486 6.27471C42.2634 6.33254 41.631 6.66732 41.1843 7.32094C40.9487 7.66633 40.788 8.04672 40.6797 8.45153C40.5858 8.80434 40.5344 9.16245 40.51 9.52428C40.4696 10.1153 40.4744 10.7058 40.5572 11.2952C40.5936 11.5554 40.6616 11.8057 40.7296 12.0563L40.7423 12.1032C40.8134 12.3653 40.9455 12.6009 41.0787 12.8349C41.3822 13.3691 41.8379 13.7161 42.4151 13.9156C42.6703 14.0036 42.9351 14.0249 43.2003 14.0334C43.3855 14.0392 43.5738 14.0424 43.7553 14.0143C43.9341 13.9867 44.1097 13.9272 44.28 13.8646C44.767 13.6864 45.1543 13.3771 45.4398 12.9452C45.6774 12.585 45.8377 12.1918 45.9167 11.7669C45.9308 11.6912 45.9469 11.6159 45.963 11.5406C45.9955 11.3887 46.0279 11.2371 46.0435 11.0835C46.0687 10.8362 46.0812 10.5876 46.0933 10.3468L46.0933 10.3463C46.0986 10.2423 46.1037 10.1398 46.1098 10.0394L46.1104 10.04ZM16.077 15.1581H17.2723H17.2739V15.0313V8.63566C17.2739 8.20168 17.2368 7.77035 17.1429 7.34697C17.1142 7.2171 17.069 7.09092 17.0236 6.9646C16.996 6.8876 16.9684 6.81056 16.9445 6.73261C16.8591 6.45407 16.7052 6.2148 16.5222 5.99356C16.2282 5.63757 15.8632 5.37601 15.4255 5.2264C15.3963 5.21643 15.3671 5.20616 15.3379 5.19588C15.1838 5.14164 15.029 5.08715 14.86 5.07467C14.7616 5.0674 14.6643 5.04599 14.567 5.02456L14.567 5.02456L14.567 5.02456L14.567 5.02456L14.567 5.02455L14.567 5.02455L14.567 5.02455L14.567 5.02455L14.567 5.02455C14.4797 5.00532 14.3923 4.98608 14.304 4.97705C13.749 4.91975 13.1978 4.95105 12.6497 5.0561C12.0179 5.17706 11.4067 5.36222 10.8247 5.6381C10.7295 5.6832 10.6377 5.73472 10.5437 5.7874C10.4973 5.81343 10.4504 5.83974 10.4024 5.8657L10.4803 6.05336L10.4809 6.05491C10.5321 6.17833 10.582 6.29855 10.6321 6.41853C10.6525 6.46738 10.6735 6.51594 10.6945 6.56448L10.6945 6.56451C10.7358 6.65985 10.777 6.75513 10.8135 6.85251C10.8576 6.96976 10.8772 6.98568 10.9918 6.9358C11.5266 6.70343 12.0762 6.52464 12.6535 6.42755C12.9256 6.38139 13.1967 6.33735 13.4726 6.32727C13.7442 6.31719 14.0159 6.32993 14.2822 6.38192C14.4403 6.41269 14.6 6.45673 14.7459 6.52304C15.1979 6.72836 15.4791 7.08595 15.6059 7.55972C15.6733 7.81173 15.7194 8.06957 15.7173 8.33378C15.7159 8.52761 15.7164 8.72143 15.7169 8.91525C15.7171 9.01217 15.7173 9.10908 15.7173 9.20599V9.34765H15.5773C15.3994 9.3478 15.2216 9.34759 15.0437 9.34737H15.0436H15.0436H15.0436H15.0435H15.0435H15.0435H15.0434H15.0434C14.6206 9.34686 14.1977 9.34635 13.775 9.35083C13.4981 9.35401 13.2211 9.37099 12.9452 9.3938C12.7505 9.40972 12.5553 9.43519 12.3648 9.47604L12.3639 9.47623L12.3639 9.47623C12.1111 9.53082 11.8558 9.58597 11.6131 9.6734C11.2857 9.79118 10.9838 9.96095 10.7159 10.1896C10.3918 10.466 10.1344 10.7918 9.98642 11.1892C9.8697 11.5016 9.78375 11.8269 9.77951 12.1664C9.77892 12.2141 9.77802 12.2618 9.77711 12.3094C9.77229 12.5636 9.76748 12.8177 9.81081 13.071C9.87554 13.4482 9.98695 13.8079 10.1949 14.131C10.2872 14.2748 10.3902 14.4143 10.5053 14.5406C10.7621 14.8228 11.0894 15.0016 11.4459 15.1279C11.7234 15.226 12.0104 15.2929 12.3038 15.3109C12.5893 15.3284 12.8736 15.3093 13.1596 15.2685C13.4387 15.2282 13.7098 15.1634 13.9766 15.0796C14.6483 14.8695 15.2605 14.5432 15.8187 14.1151C15.8336 14.1037 15.8505 14.0949 15.8688 14.0854L15.8797 14.0797C15.8853 14.0768 15.8909 14.0738 15.8967 14.0705L15.9705 14.5158L16.077 15.1581ZM15.6642 10.484L15.688 10.4856L15.7157 10.4873H15.7147V10.6231L15.7146 11.0508C15.7144 11.6214 15.7142 12.1922 15.7168 12.7627C15.7173 12.8455 15.694 12.9012 15.6314 12.9553C15.2398 13.2938 14.7883 13.5283 14.3135 13.7251C14.0138 13.8493 13.7018 13.9342 13.384 13.9872C13.2567 14.0082 13.126 14.0087 12.9951 14.0092H12.9951H12.9951H12.9951H12.9951H12.9951H12.9951H12.995H12.995C12.9176 14.0095 12.8402 14.0098 12.7633 14.0143C12.5675 14.0254 12.3813 13.9756 12.2046 13.9087C11.9691 13.819 11.7584 13.6806 11.6035 13.4742C11.4725 13.2996 11.3632 13.1039 11.3313 12.8922C11.3024 12.7007 11.3031 12.5046 11.3038 12.3091V12.3091V12.309V12.309V12.3089V12.3089V12.3089V12.3088V12.3088C11.304 12.2536 11.3042 12.1985 11.3038 12.1436C11.3022 11.968 11.3478 11.7982 11.4019 11.6322C11.4263 11.5589 11.4645 11.4894 11.5043 11.4226C11.6979 11.0979 11.9691 10.8623 12.3224 10.7217C12.5786 10.6199 12.8455 10.5674 13.1177 10.5281C13.3973 10.4878 13.6774 10.4814 13.9581 10.4804C14.3202 10.4789 14.6821 10.4794 15.0441 10.4799C15.2252 10.4801 15.4062 10.4804 15.5873 10.4804C15.6119 10.4804 15.6365 10.4821 15.6642 10.484ZM34.9796 9.33018L34.9819 9.31698L34.9819 9.31693C34.9852 9.29924 34.9876 9.28549 34.9876 9.27196C34.9865 9.17482 34.9859 9.0776 34.9853 8.98036V8.98027V8.98019V8.9801V8.98002V8.97993V8.97985V8.97976C34.9837 8.71606 34.982 8.45217 34.9696 8.18912C34.9606 7.99919 34.9314 7.80766 34.8837 7.62357C34.8115 7.34503 34.7059 7.07605 34.4964 6.86701C34.3271 6.6983 34.1319 6.56938 33.9043 6.48131C33.7446 6.41977 33.5796 6.38687 33.4156 6.35929C33.1249 6.31048 32.8283 6.31472 32.5344 6.33806C32.032 6.37785 31.5434 6.48715 31.0611 6.63198C30.811 6.70711 30.5706 6.8048 30.3295 6.90274L30.3295 6.90276L30.2764 6.92431C30.2437 6.9377 30.2094 6.94718 30.1754 6.95658L30.1753 6.95661C30.1608 6.96061 30.1464 6.9646 30.1321 6.96888L30.1226 6.94669L30.1212 6.94348C29.9649 6.5791 29.8145 6.22838 29.6605 5.86853L29.6843 5.8529L29.6843 5.85288C29.7047 5.83944 29.7249 5.82611 29.7459 5.81389C30.0833 5.61812 30.442 5.4632 30.8091 5.33693C31.0552 5.25216 31.3111 5.19458 31.5666 5.13709C31.6421 5.1201 31.7176 5.10312 31.7927 5.08545C31.9705 5.04354 32.1508 5.01118 32.3312 4.98412C32.4527 4.96555 32.5774 4.956 32.7005 4.95653C32.7629 4.95698 32.8253 4.95698 32.8879 4.95698C33.1215 4.95697 33.3556 4.95697 33.587 4.98041C33.9064 5.01277 34.2242 5.06901 34.5324 5.16663C35.2418 5.39158 35.7797 5.81919 36.1103 6.49033C36.2747 6.82404 36.3936 7.17526 36.4461 7.54398C36.5002 7.91961 36.5358 8.29629 36.5347 8.67828C36.5303 10.2658 36.5313 11.8534 36.5323 13.4411V13.4413V13.4414V13.4415V13.4416V13.4417V13.4419V13.4454C36.5326 13.9749 36.533 14.5045 36.5331 15.0342V15.1578H35.3442L35.1847 14.2093L35.1606 14.0665C35.1461 14.076 35.1321 14.0847 35.1186 14.0931C35.0937 14.1086 35.0705 14.123 35.0492 14.1391C34.3871 14.6416 33.6539 14.9944 32.8448 15.1912C32.5021 15.2745 32.1546 15.3138 31.8017 15.3191C31.5052 15.3233 31.2197 15.2697 30.9354 15.1986C30.1687 15.0071 29.6302 14.5434 29.2992 13.833C29.1899 13.5985 29.1257 13.3518 29.0801 13.0972C29.0164 12.7401 29.0206 12.3846 29.0498 12.0255C29.0753 11.7124 29.1517 11.4111 29.2764 11.1294C29.4674 10.6959 29.765 10.3405 30.1528 10.0582C30.5587 9.76218 31.0187 9.60514 31.5015 9.50221C32.0134 9.39345 32.5318 9.34676 33.0554 9.34889C33.447 9.35065 33.8388 9.35007 34.2305 9.34948H34.2306H34.2306H34.2307H34.2308H34.2308H34.2309H34.231C34.4266 9.34918 34.6223 9.34889 34.8179 9.34889H34.9765L34.9796 9.33018ZM34.9583 10.4863L34.942 10.4849C34.9173 10.4829 34.8948 10.4811 34.872 10.4811C34.7067 10.4811 34.5414 10.4805 34.3761 10.48H34.376H34.3759C33.9851 10.4788 33.5941 10.4776 33.2034 10.4832C32.9138 10.4874 32.6236 10.5039 32.3355 10.5346C32.0877 10.5612 31.8447 10.6201 31.6113 10.714C31.076 10.9299 30.7205 11.2986 30.6027 11.8737C30.5422 12.1698 30.5385 12.4727 30.5741 12.7672C30.6022 12.999 30.6834 13.2303 30.8314 13.4277C31.0017 13.6553 31.2181 13.8224 31.484 13.9179C31.6596 13.981 31.8437 14.0224 32.0336 14.0155C32.0984 14.0131 32.1636 14.0126 32.2289 14.0121H32.229C32.3763 14.011 32.5237 14.0099 32.6671 13.9863C33.0236 13.9275 33.369 13.8171 33.7006 13.6728C34.1255 13.4876 34.5425 13.2882 34.8858 12.964C34.9553 12.8987 34.9903 12.8345 34.9898 12.7369C34.9869 12.1882 34.9872 11.6395 34.9875 11.0908L34.9876 10.5978C34.9876 10.5761 34.9861 10.5542 34.9845 10.5304V10.5303V10.5303L34.9845 10.5302L34.9836 10.5171L34.9818 10.488L34.9583 10.4863ZM70.3313 15.1612L70.3567 15.1587L70.3562 15.1598L70.38 15.1311L70.3809 15.0517L70.3809 15.0497C70.3818 14.9712 70.3827 14.8928 70.3827 14.8144V0.829855C70.3827 0.765844 70.3818 0.701599 70.3808 0.637431L70.3808 0.636108L70.3795 0.539649L70.3679 0.526216L70.3562 0.512591C70.3489 0.512591 70.3416 0.512181 70.3342 0.511769C70.3194 0.510943 70.3045 0.510112 70.2904 0.512591C70.0246 0.558748 69.7588 0.605436 69.4935 0.652654C69.2332 0.699092 68.9726 0.746034 68.7121 0.792959L68.3597 0.856382L67.8313 0.950818V15.1661H67.9454C68.7175 15.1656 69.4891 15.1656 70.2607 15.1656H70.2649C70.2868 15.1656 70.309 15.1634 70.3313 15.1612ZM21.7327 0.59165C21.7332 0.613492 21.7339 0.635392 21.7346 0.657311L21.7346 0.657429C21.7361 0.701493 21.7375 0.745636 21.7375 0.789542C21.7375 5.53736 21.738 10.2846 21.7385 15.0325V15.1577H20.1358V0.917403C20.167 0.909631 20.1986 0.901576 20.2305 0.893448L20.2306 0.89344L20.2306 0.893429L20.2307 0.89341L20.2308 0.893379C20.3055 0.87434 20.3818 0.85491 20.4583 0.837822C20.7584 0.770177 21.0584 0.703428 21.3584 0.636678L21.6584 0.569898C21.6694 0.567495 21.6808 0.567536 21.6923 0.567576C21.6985 0.567598 21.7048 0.56762 21.711 0.567245L21.7322 0.59165H21.7327ZM28.1501 14.4367C26.8741 12.9146 25.6062 11.4026 24.3318 9.88309C25.0166 9.02962 25.6984 8.18024 26.381 7.32999L27.6318 5.77192L26.3818 4.83658L23.1569 9.03804L22.4452 9.96532L25.1965 13.3471L26.8901 15.4288C27.168 15.2097 27.4397 14.9959 27.7119 14.7816L27.7125 14.7811L28.1501 14.4367ZM5.0645 9.88726L5.21982 10.0692C5.35928 10.2324 5.4967 10.3932 5.63271 10.5552C6.13195 11.1494 6.63066 11.7442 7.12831 12.3394C7.68591 13.0058 8.24245 13.6721 8.79898 14.339C8.88122 14.4372 8.88122 14.442 8.78678 14.5157C8.52 14.7256 8.2527 14.9353 7.98178 15.1478L7.98122 15.1483L7.63179 15.4224C7.62189 15.4112 7.6118 15.4002 7.60172 15.3892C7.58315 15.3689 7.56463 15.3487 7.54744 15.3274C7.30003 15.0233 7.05279 14.7189 6.80552 14.4146L6.80521 14.4142L6.80491 14.4138L6.8046 14.4135C6.42118 13.9415 6.03768 13.4695 5.6534 12.9978C4.9515 12.1362 4.24906 11.2757 3.54609 10.4151C3.49575 10.3536 3.44458 10.2927 3.39341 10.2318L3.39339 10.2318L3.39338 10.2318L3.39336 10.2318C3.3286 10.1548 3.26383 10.0777 3.20071 9.9992C3.18798 9.98329 3.18851 9.94031 3.20124 9.92334C3.65064 9.33903 4.10102 8.75537 4.55138 8.17173C4.91395 7.70187 5.27651 7.23201 5.63855 6.76184C5.94951 6.3578 6.25913 5.95263 6.56871 5.54751C6.73556 5.32918 6.90239 5.11087 7.06942 4.89274C7.07803 4.88126 7.08786 4.87051 7.09972 4.85752L7.11823 4.83704C7.53417 5.14793 7.94587 5.45565 8.36712 5.77026C7.6118 6.71143 6.86066 7.64793 6.1122 8.58108L5.0645 9.88726Z" fill="#BBBBBB"/>
    </g>
    <defs>
        <clipPath id="clip0_12605_579">
            <rect width="80.6025" height="15" fill="white" transform="translate(0.848389 0.500412)"/>
        </clipPath>
    </defs>
</svg>