<svg width="103" height="18" viewBox="0 0 103 18" fill="none" xmlns="http://www.w3.org/2000/svg">
<path d="M41.7103 11.73H39.6423L38.2596 7.17185L38.333 11.73H36.8707V6.03385H39.0244L40.3092 10.4023L40.2603 6.03385H41.7103V11.73ZM35.3106 10.1453C35.3175 10.2737 35.3175 10.4024 35.3106 10.5308C35.2188 11.473 34.5458 11.9563 33.3038 11.9563C32.0617 11.9563 31.3704 11.473 31.2847 10.5308C31.2779 10.4044 31.2779 10.2778 31.2847 10.1515V6.03385H32.7653V10.2799C32.7573 10.3511 32.7573 10.4229 32.7653 10.4941C32.7864 10.6163 32.8531 10.726 32.9519 10.8009C33.0507 10.8759 33.1743 10.9105 33.2976 10.8979C33.4197 10.9075 33.5411 10.8715 33.6382 10.797C33.7354 10.7224 33.8015 10.6145 33.8238 10.4941C33.8288 10.4228 33.8288 10.3512 33.8238 10.2799V6.03385H35.2983L35.3106 10.1453ZM29.9326 10.6715C29.7796 11.785 28.7089 11.9808 27.9135 11.9808C26.6348 11.9808 25.8394 11.4302 25.8394 10.3166V9.8639H27.3935V10.4329C27.3921 10.5032 27.4058 10.5729 27.4337 10.6374C27.4617 10.7019 27.5032 10.7597 27.5554 10.8067C27.6077 10.8537 27.6694 10.8889 27.7365 10.9099C27.8036 10.931 27.8744 10.9373 27.9441 10.9285C28.0635 10.9455 28.1849 10.9172 28.2845 10.8493C28.3841 10.7814 28.4548 10.6787 28.4825 10.5614C28.5189 10.4272 28.5189 10.2857 28.4825 10.1515C28.195 9.43561 26.176 9.08687 25.9312 7.9244C25.8791 7.67007 25.8791 7.40782 25.9312 7.15349C26.1025 6.10115 27.112 5.88089 27.9258 5.88089C28.2068 5.85383 28.4904 5.8826 28.7602 5.96555C29.0301 6.0485 29.2809 6.184 29.4982 6.36423C29.618 6.49565 29.7092 6.65052 29.7661 6.81903C29.823 6.98753 29.8442 7.16601 29.8286 7.34316V7.7592H28.3785V7.39822C28.3844 7.33061 28.3752 7.26254 28.3515 7.19892C28.3279 7.13529 28.2904 7.07771 28.2419 7.03031C28.1933 6.98291 28.1348 6.94687 28.0706 6.92479C28.0064 6.90272 27.9382 6.89515 27.8707 6.90264C27.7576 6.88821 27.6433 6.91756 27.5512 6.98467C27.4591 7.05178 27.3961 7.15158 27.3751 7.26362C27.3537 7.36034 27.3537 7.46058 27.3751 7.5573C27.5281 8.16913 29.6878 8.58517 29.9203 9.75988C29.9738 10.0676 29.9738 10.3822 29.9203 10.6899L29.9326 10.6715ZM23.0128 11.785L22.9761 6.7864L22.0278 11.785H20.541L19.611 6.7864L19.5804 11.785H18.112L18.2405 6.03385H20.6083L21.2936 10.3166H21.3303L22.0155 6.03385H24.3527L24.4751 11.785H23.0128ZM15.4078 11.785L14.6858 6.6885H14.6552L13.8843 11.785H12.2813L13.3459 6.03385H15.9095L16.9557 11.785H15.4078ZM54.1732 4.28402C53.439 0.0501628 40.713 -1.26527 25.766 1.335C20.1684 2.26089 14.6844 3.77646 9.40572 5.85642C9.94378 5.82209 10.4749 5.99257 10.8925 6.33364C11.0153 6.46418 11.1106 6.61815 11.1727 6.78634C11.2347 6.95454 11.2622 7.13351 11.2534 7.31257V7.72861H9.79118V7.34316C9.79701 7.27474 9.78761 7.20588 9.76366 7.14153C9.73972 7.07717 9.70181 7.01892 9.65268 6.97095C9.60354 6.92299 9.54439 6.8865 9.47948 6.86411C9.41457 6.84172 9.3455 6.83398 9.27724 6.84146C9.16256 6.82705 9.04671 6.85704 8.95343 6.92529C8.86015 6.99355 8.79651 7.09489 8.77554 7.20856C8.7547 7.30534 8.7547 7.40545 8.77554 7.50224C8.9285 8.14466 11.1066 8.54234 11.3452 9.72317C11.3985 10.037 11.3985 10.3576 11.3452 10.6715C11.2229 11.626 10.403 12.0114 9.31395 12.0114C7.82109 12.0114 7.2215 11.3017 7.2215 10.335V9.87001H8.78778V10.4451C8.78545 10.5159 8.7985 10.5864 8.82605 10.6516C8.8536 10.7169 8.89497 10.7754 8.94733 10.8231C8.99968 10.8707 9.06176 10.9065 9.12928 10.9279C9.1968 10.9493 9.26816 10.9557 9.33842 10.9468C9.45939 10.9638 9.58232 10.9349 9.68308 10.8658C9.78383 10.7968 9.85512 10.6926 9.88295 10.5736C9.92256 10.4398 9.92256 10.2975 9.88295 10.1637C9.58927 9.4295 7.558 9.09299 7.30715 7.91216C7.25491 7.65579 7.25491 7.39151 7.30715 7.13514C7.33056 6.99511 7.37382 6.85914 7.43564 6.73133C2.52265 9.01957 -0.340707 11.5403 0.0325083 13.7184C0.772821 17.9461 13.4927 19.2677 28.4397 16.6674C34.2592 15.7108 39.9538 14.1081 45.418 11.889H45.2222C44.2004 11.889 43.2827 11.5036 43.1909 10.4574C43.1909 10.2677 43.1909 10.1882 43.1909 10.078V7.68578C43.1909 7.58177 43.1909 7.40434 43.1909 7.30645C43.3072 6.29693 44.1087 5.88089 45.2222 5.88089C46.0726 5.88089 47.125 6.12562 47.2351 7.30645C47.2422 7.42667 47.2422 7.54721 47.2351 7.66743V7.89381H45.7789V7.5573C45.7789 7.5573 45.7789 7.42882 45.7789 7.34928C45.7477 7.22573 45.6763 7.11606 45.5759 7.03749C45.4756 6.95892 45.352 6.91591 45.2245 6.91521C45.0971 6.91451 44.973 6.95616 44.8718 7.03362C44.7706 7.11108 44.698 7.21996 44.6654 7.34316C44.6545 7.43052 44.6545 7.51889 44.6654 7.60625V10.2188C44.6574 10.2899 44.6574 10.3617 44.6654 10.4329C44.6893 10.5597 44.7612 10.6723 44.866 10.7475C44.9708 10.8227 45.1006 10.8547 45.2283 10.8367C45.3558 10.8532 45.4848 10.8206 45.5893 10.7457C45.6938 10.6707 45.7659 10.559 45.7912 10.4329C45.7971 10.3616 45.7971 10.29 45.7912 10.2188V9.41114H45.1794V8.56682H47.2351V10.1147C47.2423 10.2411 47.2423 10.3677 47.2351 10.4941C47.2165 10.746 47.1321 10.9886 46.9904 11.1977C51.7626 8.93391 54.5403 6.45601 54.161 4.30849" fill="#BBBBBB"/>
<path d="M85.0319 8.29699C85.09 7.91507 85.283 7.56662 85.576 7.31482C85.869 7.06303 86.2425 6.92458 86.6288 6.92458C87.0151 6.92458 87.3886 7.06303 87.6816 7.31482C87.9746 7.56662 88.1676 7.91507 88.2257 8.29699C88.1676 8.67891 87.9746 9.02737 87.6816 9.27916C87.3886 9.53095 87.0151 9.66941 86.6288 9.66941C86.2425 9.66941 85.869 9.53095 85.576 9.27916C85.283 9.02737 85.09 8.67891 85.0319 8.29699ZM87.3385 10.7443C87.9426 10.6603 88.4995 10.3714 88.9161 9.9259C89.3326 9.4804 89.5835 8.90535 89.6268 8.29699C89.6268 6.90202 88.2869 5.77014 86.6288 5.77014C84.9708 5.77014 83.6309 6.90202 83.6309 8.29699C83.6653 8.89642 83.9038 9.46601 84.3067 9.91119C84.7096 10.3564 85.2527 10.6503 85.8457 10.7443V11.711H83.4595V12.9347H89.7797V11.711H87.3324L87.3385 10.7443ZM101.356 3.05974V7.25688H100.64V3.05974H99.208V14.8068H100.64V8.44383H101.356V14.8007H102.848V3.05974H101.356ZM96.6995 4.89522H98.4922V3.59203H93.7199V4.89522H95.3902C95.3902 4.89522 95.7451 10.4017 93.0041 12.2372L93.9585 13.2467C94.9236 12.561 95.6354 11.576 95.9837 10.4445C95.9837 10.4445 97.0605 12.6532 97.9538 13.2467L98.9694 12.2372C98.9694 12.2372 96.5221 10.7382 96.6995 4.89522ZM93.2427 7.52609H91.811V3.05974H90.3793V14.8068H91.811V8.73751H93.2427V7.52609ZM89.5717 3.98972H87.4242V2.96185H85.8763V3.94689H83.5085V5.20114H89.5289L89.5717 3.98972ZM78.4487 13.8524C77.0965 13.8524 76.0014 13.106 76.0014 12.1821C76.0014 11.2582 77.0965 10.5118 78.4487 10.5118C79.8008 10.5118 80.896 11.2582 80.896 12.1821C80.896 13.106 79.8008 13.8524 78.4487 13.8524ZM78.4487 9.19638C76.2706 9.19638 74.5085 10.5363 74.5085 12.1821C74.5085 13.8279 76.2706 15.1617 78.4487 15.1617C80.6268 15.1617 82.3827 13.8279 82.3827 12.1821C82.3827 10.5363 80.6207 9.17802 78.4487 9.17802V9.19638ZM80.6574 9.17802H82.2848V3.05974H80.6757V5.01759H78.8402V6.3942H80.6757L80.6574 9.17802ZM66.3345 11.0135H70.4521V13.4608H66.3345V11.0135ZM64.8477 14.8252H72.0061V9.67361H64.8477V14.8252ZM71.9449 6.41868H73.1992V5.01759H71.9449V3.02303H70.4521V9.07401H71.9449V6.41868ZM76.1788 6.41868C76.1788 6.41868 77.3168 8.5662 78.4487 8.92718L79.2808 8.08897C78.5213 7.54788 77.9102 6.82431 77.5039 5.98495C77.0976 5.1456 76.9091 4.21747 76.9558 3.28611H75.4018C75.4018 3.28611 75.7627 6.47374 73.0217 8.02779L73.8538 8.98224C74.8654 8.37652 75.6745 7.48437 76.1788 6.41868ZM66.1632 6.41868C66.1632 6.41868 67.295 8.5662 68.4208 8.92718L69.259 8.08897C68.4983 7.54907 67.8863 6.82572 67.4798 5.98608C67.0734 5.14643 66.8856 4.21771 66.9341 3.28611H65.3861C65.3861 3.28611 65.741 6.47374 63 8.02779L63.8321 8.98224C64.8447 8.37603 65.6557 7.48419 66.1632 6.41868Z" fill="#BBBBBB"/>
</svg>
