<svg xmlns="http://www.w3.org/2000/svg" width="56" height="16" viewBox="0 0 56 16" fill="none">
    <g clip-path="url(#clip0_14290_16277)">
        <path d="M19.6023 5.38188V4.58073C19.6023 2.96048 20.9057 1.49567 23.0461 1.49567C25.1865 1.49567 26.4898 2.96048 26.4898 4.58073V5.38188C26.4898 7.00213 25.1865 8.46693 23.0461 8.46693C20.9057 8.46693 19.6023 7.00213 19.6023 5.38188ZM21.3122 4.70628V5.25035C21.3122 6.11129 21.9699 6.90049 23.0461 6.90049C24.1223 6.90049 24.7799 6.11129 24.7799 5.25035V4.70628C24.7799 3.84534 24.1223 3.05614 23.0461 3.05614C21.9699 3.05614 21.3122 3.84534 21.3122 4.70628ZM23.6081 12.6521H30.4956V14.2006H21.7845V9.72247H23.6081V12.6521ZM30.2804 10.4997H28.4748V0.999435H30.2804V10.4997Z" fill="#BBBBBB"/>
        <path d="M44.0564 7.24649V8.74119H31.8298V7.24649H44.0564ZM33.4082 1.47697H42.478V2.95373H38.8489V3.02548C38.8489 3.58748 39.0941 3.89838 39.8115 4.18536C40.8877 4.61583 41.934 4.97456 43.052 5.33328L42.49 6.76819C41.3002 6.36761 40.3257 6.00889 39.3751 5.65016C38.556 5.33329 38.0836 5.0762 37.97 4.849H37.9581C37.8445 5.0762 37.3423 5.36318 36.5232 5.68005C35.5785 6.03878 34.598 6.39751 33.4082 6.79809L32.8343 5.33328C33.9523 4.97456 34.9986 4.61583 36.0748 4.18536C36.7922 3.89838 37.0374 3.5815 37.0374 3.02548V2.95373H33.4082V1.47697ZM33.6354 12.2687V11.8382C33.6354 10.1582 35.6144 9.357 37.9401 9.357C40.2659 9.357 42.2449 10.1582 42.2449 11.8382V12.2687C42.2449 13.9487 40.2659 14.7499 37.9401 14.7499C35.6144 14.7499 33.6354 13.9427 33.6354 12.2687ZM35.4291 11.9518V12.1551C35.4291 12.8426 36.6607 13.291 37.9401 13.291C39.2196 13.291 40.4512 12.8486 40.4512 12.1551V11.9518C40.4512 11.2642 39.2196 10.8158 37.9401 10.8158C36.6607 10.8158 35.4291 11.2642 35.4291 11.9518Z" fill="#BBBBBB"/>
        <path d="M52.5636 9.8002L51.4037 11.0199C50.758 10.416 50.1242 9.78824 49.5981 9.23819C49.054 8.67619 48.6355 8.20386 48.5339 7.95873H48.504C48.4203 8.21582 47.9001 8.80772 47.4278 9.292C46.8957 9.85401 46.3397 10.3981 45.5206 11.1574L44.3308 9.92575C45.132 9.2083 45.8674 8.49084 46.4832 7.81524C47.3142 6.89451 47.5892 6.19499 47.5892 5.01717V1.94408H49.4427V5.01717C49.4427 6.15314 49.5981 6.78091 50.4591 7.7136C51.0689 8.39518 51.8162 9.12459 52.5636 9.8002ZM51.2841 5.01717H53.9088V0.999435H55.7323V14.3441H53.9088V6.60155H51.2841V5.01717Z" fill="#BBBBBB"/>
        <path d="M6.62733 7.57514L11.0636 14.0741H15.7509V1.51865H11.1234V8.01758L6.68712 1.51865H1.99976V14.0741H6.62733V7.57514Z" fill="#BBBBBB"/>
    </g>
    <defs>
        <clipPath id="clip0_14290_16277">
            <rect width="55" height="15" fill="white" transform="translate(0.848389 0.500412)"/>
        </clipPath>
    </defs>
</svg>